<mxfile host="Electron" agent="Mozilla/5.0 (Windows NT 10.0; Win64; x64) AppleWebKit/537.36 (KHTML, like Gecko) draw.io/23.1.5 Chrome/120.0.6099.109 Electron/28.1.0 Safari/537.36" modified="2025-10-28T06:55:00.302Z" version="23.1.5" etag="R9TRPQK7EIlZU7n2fwRK" type="device">
  <diagram name="Страница — 1" id="jR6FColE7d-BJVLjcg3X">
    <mxGraphModel dx="1434" dy="844" grid="0" gridSize="10" guides="1" tooltips="1" connect="1" arrows="1" fold="1" page="1" pageScale="1" pageWidth="827" pageHeight="1169" math="0" shadow="0">
      <root>
        <mxCell id="0" />
        <mxCell id="1" parent="0" />
        <mxCell id="5QiBK-Bls3Wu91XyoAU1-1" value="Администратор" style="shape=umlActor;verticalLabelPosition=bottom;verticalAlign=top;html=1;outlineConnect=0;" parent="1" vertex="1">
          <mxGeometry x="99" y="427" width="30" height="60" as="geometry" />
        </mxCell>
        <mxCell id="5QiBK-Bls3Wu91XyoAU1-10" style="edgeStyle=orthogonalEdgeStyle;rounded=0;orthogonalLoop=1;jettySize=auto;html=1;exitX=0.5;exitY=0;exitDx=0;exitDy=0;exitPerimeter=0;endArrow=block;endFill=0;endSize=10;" parent="1" source="5QiBK-Bls3Wu91XyoAU1-2" edge="1">
          <mxGeometry relative="1" as="geometry">
            <mxPoint x="113.85714285714278" y="189" as="targetPoint" />
          </mxGeometry>
        </mxCell>
        <mxCell id="5QiBK-Bls3Wu91XyoAU1-2" value="Менеджер" style="shape=umlActor;verticalLabelPosition=bottom;verticalAlign=top;html=1;outlineConnect=0;" parent="1" vertex="1">
          <mxGeometry x="99" y="264" width="30" height="60" as="geometry" />
        </mxCell>
        <mxCell id="5QiBK-Bls3Wu91XyoAU1-5" value="Пользователь" style="shape=umlActor;verticalLabelPosition=bottom;verticalAlign=top;html=1;outlineConnect=0;" parent="1" vertex="1">
          <mxGeometry x="99" y="106" width="30" height="60" as="geometry" />
        </mxCell>
        <mxCell id="5QiBK-Bls3Wu91XyoAU1-11" style="edgeStyle=orthogonalEdgeStyle;rounded=0;orthogonalLoop=1;jettySize=auto;html=1;exitX=0.5;exitY=0;exitDx=0;exitDy=0;exitPerimeter=0;endArrow=block;endFill=0;endSize=10;" parent="1" source="5QiBK-Bls3Wu91XyoAU1-1" edge="1">
          <mxGeometry relative="1" as="geometry">
            <mxPoint x="113.7" y="342" as="targetPoint" />
            <mxPoint x="113.84285714285723" y="417" as="sourcePoint" />
          </mxGeometry>
        </mxCell>
        <mxCell id="5QiBK-Bls3Wu91XyoAU1-12" value="Просмотр расписания" style="ellipse;whiteSpace=wrap;html=1;" parent="1" vertex="1">
          <mxGeometry x="200" y="106" width="120" height="60" as="geometry" />
        </mxCell>
        <mxCell id="5QiBK-Bls3Wu91XyoAU1-14" value="" style="endArrow=none;html=1;rounded=0;entryX=0;entryY=0.5;entryDx=0;entryDy=0;" parent="1" target="5QiBK-Bls3Wu91XyoAU1-12" edge="1">
          <mxGeometry width="50" height="50" relative="1" as="geometry">
            <mxPoint x="134" y="136" as="sourcePoint" />
            <mxPoint x="224" y="116" as="targetPoint" />
          </mxGeometry>
        </mxCell>
        <mxCell id="5QiBK-Bls3Wu91XyoAU1-15" value="Редактирование расписания" style="ellipse;whiteSpace=wrap;html=1;" parent="1" vertex="1">
          <mxGeometry x="195" y="233" width="120" height="59" as="geometry" />
        </mxCell>
        <mxCell id="5QiBK-Bls3Wu91XyoAU1-16" value="" style="endArrow=none;html=1;rounded=0;entryX=0;entryY=0.5;entryDx=0;entryDy=0;" parent="1" target="5QiBK-Bls3Wu91XyoAU1-15" edge="1">
          <mxGeometry width="50" height="50" relative="1" as="geometry">
            <mxPoint x="131" y="294" as="sourcePoint" />
            <mxPoint x="200" y="264" as="targetPoint" />
          </mxGeometry>
        </mxCell>
        <mxCell id="5QiBK-Bls3Wu91XyoAU1-22" style="rounded=0;orthogonalLoop=1;jettySize=auto;html=1;exitX=0;exitY=0.5;exitDx=0;exitDy=0;entryX=1;entryY=0;entryDx=0;entryDy=0;strokeColor=default;endArrow=block;endFill=0;endSize=10;" parent="1" source="5QiBK-Bls3Wu91XyoAU1-17" target="5QiBK-Bls3Wu91XyoAU1-15" edge="1">
          <mxGeometry relative="1" as="geometry" />
        </mxCell>
        <mxCell id="5QiBK-Bls3Wu91XyoAU1-17" value="Добавление расписания" style="ellipse;whiteSpace=wrap;html=1;" parent="1" vertex="1">
          <mxGeometry x="336" y="164" width="120" height="60" as="geometry" />
        </mxCell>
        <mxCell id="5QiBK-Bls3Wu91XyoAU1-23" style="edgeStyle=orthogonalEdgeStyle;rounded=0;orthogonalLoop=1;jettySize=auto;html=1;exitX=0;exitY=0.5;exitDx=0;exitDy=0;endSize=10;endArrow=block;endFill=0;entryX=1;entryY=0.5;entryDx=0;entryDy=0;" parent="1" source="5QiBK-Bls3Wu91XyoAU1-18" target="5QiBK-Bls3Wu91XyoAU1-15" edge="1">
          <mxGeometry relative="1" as="geometry">
            <mxPoint x="352.1724137931035" y="294.2413793103449" as="targetPoint" />
          </mxGeometry>
        </mxCell>
        <mxCell id="5QiBK-Bls3Wu91XyoAU1-18" value="Удаление расписания" style="ellipse;whiteSpace=wrap;html=1;" parent="1" vertex="1">
          <mxGeometry x="359" y="232" width="120" height="60" as="geometry" />
        </mxCell>
        <mxCell id="5QiBK-Bls3Wu91XyoAU1-24" style="rounded=0;orthogonalLoop=1;jettySize=auto;html=1;exitX=0;exitY=0.5;exitDx=0;exitDy=0;entryX=1;entryY=1;entryDx=0;entryDy=0;endSize=10;endArrow=block;endFill=0;" parent="1" source="5QiBK-Bls3Wu91XyoAU1-19" target="5QiBK-Bls3Wu91XyoAU1-15" edge="1">
          <mxGeometry relative="1" as="geometry" />
        </mxCell>
        <mxCell id="5QiBK-Bls3Wu91XyoAU1-19" value="Изменение расписания" style="ellipse;whiteSpace=wrap;html=1;" parent="1" vertex="1">
          <mxGeometry x="353" y="296" width="120" height="60" as="geometry" />
        </mxCell>
        <mxCell id="5QiBK-Bls3Wu91XyoAU1-25" value="Просмотр информации о пользователях" style="ellipse;whiteSpace=wrap;html=1;" parent="1" vertex="1">
          <mxGeometry x="204" y="427" width="120" height="60" as="geometry" />
        </mxCell>
        <mxCell id="5QiBK-Bls3Wu91XyoAU1-26" value="Экспорт расписания" style="ellipse;whiteSpace=wrap;html=1;" parent="1" vertex="1">
          <mxGeometry x="195" y="305" width="120" height="60" as="geometry" />
        </mxCell>
        <mxCell id="5QiBK-Bls3Wu91XyoAU1-27" value="" style="endArrow=none;html=1;rounded=0;entryX=0;entryY=0.5;entryDx=0;entryDy=0;" parent="1" target="5QiBK-Bls3Wu91XyoAU1-26" edge="1">
          <mxGeometry width="50" height="50" relative="1" as="geometry">
            <mxPoint x="131" y="298" as="sourcePoint" />
            <mxPoint x="193" y="296" as="targetPoint" />
          </mxGeometry>
        </mxCell>
        <mxCell id="5QiBK-Bls3Wu91XyoAU1-28" value="" style="endArrow=none;html=1;rounded=0;entryX=0;entryY=0.5;entryDx=0;entryDy=0;" parent="1" target="5QiBK-Bls3Wu91XyoAU1-25" edge="1">
          <mxGeometry width="50" height="50" relative="1" as="geometry">
            <mxPoint x="131" y="457" as="sourcePoint" />
            <mxPoint x="195" y="424" as="targetPoint" />
          </mxGeometry>
        </mxCell>
        <mxCell id="5QiBK-Bls3Wu91XyoAU1-32" style="rounded=0;orthogonalLoop=1;jettySize=auto;html=1;exitX=0;exitY=0.5;exitDx=0;exitDy=0;entryX=1;entryY=0;entryDx=0;entryDy=0;dashed=1;dashPattern=12 12;" parent="1" source="5QiBK-Bls3Wu91XyoAU1-29" target="5QiBK-Bls3Wu91XyoAU1-25" edge="1">
          <mxGeometry relative="1" as="geometry" />
        </mxCell>
        <mxCell id="5QiBK-Bls3Wu91XyoAU1-34" value="&amp;lt;&amp;lt;extend&amp;gt;&amp;gt;" style="edgeLabel;html=1;align=center;verticalAlign=middle;resizable=0;points=[];" parent="5QiBK-Bls3Wu91XyoAU1-32" vertex="1" connectable="0">
          <mxGeometry x="-0.0751" y="2" relative="1" as="geometry">
            <mxPoint as="offset" />
          </mxGeometry>
        </mxCell>
        <mxCell id="5QiBK-Bls3Wu91XyoAU1-29" value="Добавление информации о новом пользователе" style="ellipse;whiteSpace=wrap;html=1;" parent="1" vertex="1">
          <mxGeometry x="406" y="362" width="129" height="61" as="geometry" />
        </mxCell>
        <mxCell id="5QiBK-Bls3Wu91XyoAU1-35" style="edgeStyle=orthogonalEdgeStyle;rounded=0;orthogonalLoop=1;jettySize=auto;html=1;exitX=0;exitY=0.5;exitDx=0;exitDy=0;entryX=1;entryY=0.5;entryDx=0;entryDy=0;dashed=1;dashPattern=12 12;" parent="1" source="5QiBK-Bls3Wu91XyoAU1-30" target="5QiBK-Bls3Wu91XyoAU1-25" edge="1">
          <mxGeometry relative="1" as="geometry" />
        </mxCell>
        <mxCell id="5QiBK-Bls3Wu91XyoAU1-36" value="&amp;lt;&amp;lt;extend&amp;gt;&amp;gt;" style="edgeLabel;html=1;align=center;verticalAlign=bottom;resizable=0;points=[];labelPosition=center;verticalLabelPosition=top;" parent="5QiBK-Bls3Wu91XyoAU1-35" vertex="1" connectable="0">
          <mxGeometry x="-0.2633" y="2" relative="1" as="geometry">
            <mxPoint as="offset" />
          </mxGeometry>
        </mxCell>
        <mxCell id="5QiBK-Bls3Wu91XyoAU1-30" value="Изменение информации о пользователе" style="ellipse;whiteSpace=wrap;html=1;" parent="1" vertex="1">
          <mxGeometry x="437" y="427" width="120" height="60" as="geometry" />
        </mxCell>
        <mxCell id="5QiBK-Bls3Wu91XyoAU1-37" style="rounded=0;orthogonalLoop=1;jettySize=auto;html=1;exitX=0;exitY=0.5;exitDx=0;exitDy=0;entryX=1;entryY=1;entryDx=0;entryDy=0;dashed=1;dashPattern=12 12;" parent="1" source="5QiBK-Bls3Wu91XyoAU1-31" target="5QiBK-Bls3Wu91XyoAU1-25" edge="1">
          <mxGeometry relative="1" as="geometry" />
        </mxCell>
        <mxCell id="5QiBK-Bls3Wu91XyoAU1-38" value="&amp;lt;&amp;lt;extend&amp;gt;&amp;gt;" style="edgeLabel;html=1;align=center;verticalAlign=middle;resizable=0;points=[];" parent="5QiBK-Bls3Wu91XyoAU1-37" vertex="1" connectable="0">
          <mxGeometry x="0.0451" relative="1" as="geometry">
            <mxPoint as="offset" />
          </mxGeometry>
        </mxCell>
        <mxCell id="5QiBK-Bls3Wu91XyoAU1-31" value="Удаление информации о пользователе" style="ellipse;whiteSpace=wrap;html=1;" parent="1" vertex="1">
          <mxGeometry x="393" y="495" width="120" height="60" as="geometry" />
        </mxCell>
      </root>
    </mxGraphModel>
  </diagram>
</mxfile>
